<svg width="20" height="18" viewBox="0 0 20 18" fill="none" xmlns="http://www.w3.org/2000/svg">
<path fill-rule="evenodd" clip-rule="evenodd" d="M12.9401 1.76338C12.0569 2.14052 11.2071 2.84465 10.3996 3.91739C10.3051 4.04289 10.1572 4.1167 10.0001 4.1167C9.84319 4.1167 9.69542 4.04308 9.60094 3.91787L9.59691 3.91262L9.57898 3.88974C9.56234 3.86875 9.53643 3.83664 9.50167 3.79523C9.4321 3.71234 9.3274 3.59259 9.19088 3.45039C8.91701 3.1651 8.51967 2.79423 8.02563 2.44965C7.03123 1.75608 5.70368 1.20675 4.21155 1.57844C1.2959 2.30472 -0.566545 6.8579 2.78584 10.8662C4.50527 12.9221 6.36366 14.3626 7.79221 15.2886C8.50599 15.7513 9.11085 16.0846 9.53497 16.3012C9.73432 16.403 9.89359 16.4789 10.0053 16.5304C12.5616 15.4334 14.9662 13.5542 17.2143 10.8662C20.5667 6.8579 18.7043 2.30472 15.7886 1.57844C14.7594 1.32205 13.8163 1.3892 12.9401 1.76338ZM10.0001 17.075C9.80947 17.5373 9.80933 17.5372 9.80916 17.5372L9.80768 17.5365L9.8044 17.5352L9.79344 17.5306L9.75425 17.5137C9.72058 17.4991 9.67204 17.4777 9.60976 17.4492C9.48521 17.3922 9.30562 17.3069 9.08014 17.1917C8.62929 16.9615 7.99424 16.6113 7.24826 16.1277C5.7573 15.1612 3.81682 13.6577 2.01876 11.5078C-1.6638 7.10466 0.131932 1.5641 3.96984 0.608087C5.85449 0.138626 7.48162 0.851013 8.5977 1.62945C9.15891 2.02087 9.60577 2.43858 9.91228 2.75786C9.93734 2.78397 9.96149 2.80945 9.98473 2.83424C10.7639 1.91358 11.6162 1.24134 12.5474 0.843718C13.6409 0.37675 14.8084 0.303704 16.0303 0.608087C19.8682 1.5641 21.664 7.10466 17.9814 11.5078C15.5968 14.3589 13.0017 16.3783 10.1907 17.5373C10.0686 17.5876 9.93124 17.5875 9.80916 17.5372L10.0001 17.075Z" fill="#888888"/>
</svg>
